<svg id="OP-Logo-text" data-name="Layer 1" xmlns="http://www.w3.org/2000/svg" viewBox="0 0 1200 800"><defs><style>.cls-1{fill:#252328;}</style></defs><title>Logo001</title><path class="cls-1" d="M573.53,453.48q-6,0-9.07,4t-3.05,10.88q0,6.92,3.05,10.88t9.07,4q6,0,9.07-4t3-10.88q0-6.91-3-10.88T573.53,453.48Z"/><path class="cls-1" d="M449.26,453.86V467.5H458q7.35,0,7.35-6.91a6.35,6.35,0,0,0-1.93-5,7.78,7.78,0,0,0-5.42-1.75Z"/><path class="cls-1" d="M643.09,460.59a6.35,6.35,0,0,0-1.94-5,7.77,7.77,0,0,0-5.42-1.75H627V467.5h8.76Q643.1,467.5,643.09,460.59Z"/><path class="cls-1" d="M736.65,35.59A363.21,363.21,0,0,0,600,62.11,363.21,363.21,0,0,0,463.35,35.59C262.09,35.59,98.93,198.74,98.93,400S262.09,764.41,463.35,764.41A363.21,363.21,0,0,0,600,737.89a363.21,363.21,0,0,0,136.65,26.52c201.26,0,364.42-163.15,364.42-364.41S937.91,35.59,736.65,35.59ZM592.45,334.84v19h-8.69V309.47h8.69V327h19.22V309.47h8.7v44.41h-8.7v-19ZM526.81,463.76v7.74H506.7v11.29h22.08v7.74H498V446.12h30.77v7.8H506.7v9.84ZM462.39,317.34v36.54h-8.75V317.34H440.57v-7.87h34.89v7.87Zm11.87,143.25a14.55,14.55,0,0,1-4,10.59,14.19,14.19,0,0,1-10.63,4.12H449.26v15.23h-8.69V446.12h19q6.66,0,10.66,4.06A14.25,14.25,0,0,1,474.26,460.59ZM589.1,484.73q-5.42,6.38-15.57,6.37t-15.61-6.37q-5.38-6.39-5.39-16.4t5.39-16.4q5.4-6.37,15.61-6.38t15.57,6.38q5.43,6.38,5.43,16.4T589.1,484.73Zm48.21-38.61q6.68,0,10.66,4.06a14.21,14.21,0,0,1,4,10.41,14.51,14.51,0,0,1-4,10.59,14.18,14.18,0,0,1-10.63,4.12H627v15.23h-8.69V446.12Zm67.6,36.61v7.8H675.72V446.12h8.69v36.61Zm52.55-155.62v7.73H737.35v11.3h22.08v7.74H728.66V309.47h30.77v7.8H737.35v9.84Zm2,119v7.8H737.35v9.84h20.11v7.74H737.35v11.29h22.08v7.74H728.66V446.12ZM463.35,750.55A350.55,350.55,0,0,1,215.47,152.13,351.43,351.43,0,0,1,582,70C458.08,128.13,372.24,254,372.24,400S458.08,671.87,582,730A350.82,350.82,0,0,1,463.35,750.55ZM984.53,647.87A351.43,351.43,0,0,1,618,730C741.92,671.87,827.76,546,827.76,400S741.92,128.13,618,70A350.65,350.65,0,0,1,984.53,647.87Z"/><path class="cls-1" d="M305.69,308.9q-10.21,0-15.6,6.37t-5.4,16.4q0,10,5.4,16.4t15.6,6.38q10.15,0,15.58-6.38t5.42-16.4q0-10-5.42-16.4T305.69,308.9Zm9.07,33.65q-3,4-9.07,4t-9.07-4q-3-4-3.05-10.88t3.05-10.88q3-4,9.07-4t9.07,4q3,4,3.05,10.88T314.76,342.55Z"/><path class="cls-1" d="M905.22,331.64a14.09,14.09,0,0,0,2.41-8.28,13.35,13.35,0,0,0-4-9.89q-4-4-10.82-4H873.31v44.41H882V337.64h7.49l10.21,16.24h10v-.64l-11-16.62A13.38,13.38,0,0,0,905.22,331.64Zm-12.88-1.74H882V317.27h10.34a6.12,6.12,0,0,1,4.73,1.75,6.25,6.25,0,0,1,1.61,4.41,6.8,6.8,0,0,1-1.58,4.66A6,6,0,0,1,892.34,329.9Z"/></svg>