<?xml version="1.0" encoding="utf-8"?>
<!-- Generator: Adobe Illustrator 24.1.0, SVG Export Plug-In . SVG Version: 6.00 Build 0)  -->
<svg version="1.1" id="Layer_1" xmlns="http://www.w3.org/2000/svg" xmlns:xlink="http://www.w3.org/1999/xlink" x="0px" y="0px"
	 viewBox="0 0 600 420" style="enable-background:new 0 0 600 420;" xml:space="preserve">
<style type="text/css">

	    .st0 {
      fill: #151515;

    }
    @media (prefers-color-scheme: dark) {
      .st0 {
        fill: #f4f6f8;
     
      }
    }
</style>
<g>
</g>
<g>
	<path class="st0" d="M378.8,0c-27.9,0-54.4,5.4-78.8,15.3C275.7,5.4,249.1,0,221.2,0c-116,0-210,94-210,210c0,116,94,210,210,210
		c27.9,0,54.4-5.4,78.7-15.3c24.3,9.8,50.9,15.3,78.8,15.3c116,0,210-94,210-210C588.7,94,494.7,0,378.8,0z M221.2,412
		c-111.4,0-202-90.6-202-202c0-111.4,90.6-202,202-202c23.9,0,46.9,4.2,68.3,11.9C218.2,53.4,168.7,125.9,168.7,210
		s49.4,156.6,120.8,190.1C268.2,407.8,245.2,412,221.2,412z M378.8,412c-23.9,0-46.9-4.2-68.3-11.9
		c71.4-33.5,120.8-106.1,120.8-190.1S381.8,53.4,310.5,19.9C331.8,12.2,354.8,8,378.8,8c111.4,0,202,90.6,202,202
		C580.8,321.4,490.1,412,378.8,412z"/>
</g>
</svg>


